<svg width="21" height="21" viewBox="0 0 21 21" fill="none" xmlns="http://www.w3.org/2000/svg">
<path d="M3.64502 17.56L12.6715 20.4891C12.6811 20.4922 12.6887 20.4808 12.6822 20.4731L6.07397 12.6905C6.06956 12.6854 6.07153 12.6774 6.07784 12.6748L16.36 8.51L12.7143 20.4796C12.7114 20.4889 12.7223 20.4964 12.73 20.4903L20.4926 14.3909C20.4967 14.3876 20.4976 14.3816 20.4946 14.3772L16.36 8.51L19.4102 5.29036C19.415 5.28532 19.4133 5.27708 19.4069 5.27431L9.61251 1.01846C9.60264 1.01418 9.59389 1.02637 9.60112 1.03435L16.36 8.5" fill="#6389EA"/>
<path d="M3.64502 17.56L12.6715 20.4891C12.6811 20.4922 12.6887 20.4808 12.6822 20.4731L6.07397 12.6905C6.06956 12.6854 6.07153 12.6774 6.07784 12.6748L16.36 8.51M16.36 8.51L12.7143 20.4796C12.7114 20.4889 12.7223 20.4964 12.73 20.4903L20.4926 14.3909C20.4967 14.3876 20.4976 14.3816 20.4946 14.3772L16.36 8.51ZM16.36 8.51L19.4102 5.29036C19.415 5.28532 19.4133 5.27708 19.4069 5.27431L9.61251 1.01846C9.60264 1.01418 9.59389 1.02637 9.60112 1.03435L16.36 8.5" stroke="black" stroke-width="0.5" stroke-linecap="round" stroke-linejoin="round"/>
<path d="M6.065 12.68L3.65618 17.5374C3.65216 17.5456 3.6403 17.5446 3.63766 17.5359L1 8.885L9.54317 1.02468C9.55066 1.0178 9.56244 1.02518 9.55952 1.03492L6.065 12.68ZM6.065 12.68L1 8.885L6.065 12.68ZM20.5 14.385L19.42 5.28L20.5 14.385Z" fill="#6389EA"/>
<path d="M6.065 12.68L3.65618 17.5374C3.65216 17.5456 3.6403 17.5446 3.63766 17.5359L1 8.885M6.065 12.68L9.55952 1.03492C9.56244 1.02518 9.55066 1.0178 9.54317 1.02468L1 8.885M6.065 12.68L1 8.885M20.5 14.385L19.42 5.28" stroke="black" stroke-width="0.5" stroke-linecap="round" stroke-linejoin="round"/>
</svg>
